<svg width="49" height="50" viewBox="0 0 49 50" fill="none" xmlns="http://www.w3.org/2000/svg">
<path d="M6.86109 18.8898V18.8889V10.7408C6.86109 9.82108 7.18007 9.05188 7.8392 8.39276C8.49829 7.73366 9.26651 7.41558 10.1843 7.41669H10.1852H18.3333C19.253 7.41669 20.0222 7.73567 20.6813 8.3948C21.3404 9.05389 21.6585 9.82212 21.6574 10.7399V10.7408V18.8889C21.6574 19.8086 21.3384 20.5778 20.6793 21.2369C20.0202 21.896 19.252 22.2141 18.3342 22.213H18.3333H10.1852C9.26548 22.213 8.49628 21.894 7.83716 21.2349C7.17806 20.5758 6.85997 19.8076 6.86109 18.8898ZM6.86109 39.2602V39.2593V31.1111C6.86109 30.1915 7.18007 29.4223 7.8392 28.7631C8.49829 28.104 9.26651 27.7859 10.1843 27.7871H10.1852H18.3333C19.253 27.7871 20.0222 28.106 20.6813 28.7652C21.3404 29.4243 21.6585 30.1925 21.6574 31.1102V31.1111V39.2593C21.6574 40.179 21.3384 40.9482 20.6793 41.6073C20.0202 42.2664 19.252 42.5845 18.3342 42.5834H18.3333H10.1852C9.26547 42.5834 8.49628 42.2644 7.83716 41.6053C7.17806 40.9462 6.85997 40.1779 6.86109 39.2602ZM27.2315 18.8898V18.8889V10.7408C27.2315 9.82108 27.5504 9.05189 28.2096 8.39276C28.8687 7.73366 29.6369 7.41558 30.5546 7.41669H30.5555H38.7037C39.6234 7.41669 40.3926 7.73567 41.0517 8.3948C41.7108 9.05389 42.0289 9.82211 42.0278 10.7399V10.7408V18.8889C42.0278 19.8086 41.7088 20.5778 41.0496 21.2369C40.3906 21.896 39.6223 22.2141 38.7046 22.213H38.7037H30.5555C29.6358 22.213 28.8667 21.894 28.2075 21.2349C27.5484 20.5758 27.2303 19.8076 27.2315 18.8898ZM27.2315 39.2602V39.2593V31.1111C27.2315 30.1915 27.5504 29.4223 28.2096 28.7631C28.8687 28.104 29.6369 27.7859 30.5546 27.7871H30.5555H38.7037C39.6234 27.7871 40.3926 28.106 41.0517 28.7652C41.7108 29.4243 42.0289 30.1925 42.0278 31.1102V31.1111V39.2593C42.0278 40.179 41.7088 40.9482 41.0496 41.6073C40.3906 42.2664 39.6223 42.5845 38.7046 42.5834H38.7037H30.5555C29.6358 42.5834 28.8667 42.2644 28.2075 41.6053C27.5484 40.9462 27.2303 40.1779 27.2315 39.2602Z" fill="white" stroke="black" stroke-width="1.5"/>
</svg>
