<svg width="61" height="60" viewBox="0 0 61 60" fill="none" xmlns="http://www.w3.org/2000/svg">
<path d="M8.72212 20.0021V20.0003V15.0003C8.72212 14.4882 8.8871 14.0949 9.21432 13.7677C9.54144 13.4406 9.93328 13.2768 10.4425 13.278V13.278H10.4443H15.4443C15.9564 13.278 16.3497 13.443 16.6769 13.7702C17.004 14.0973 17.1678 14.4892 17.1666 14.9984V15.0003V20.0003C17.1666 20.5123 17.0016 20.9056 16.6744 21.2328C16.3472 21.5599 15.9554 21.7237 15.4462 21.7225H15.4443H10.4443C9.93229 21.7225 9.53904 21.5575 9.21182 21.2303C8.88469 20.9032 8.72092 20.5113 8.72212 20.0021ZM21.2221 20.0021V20.0003V15.0003C21.2221 14.4882 21.3871 14.0949 21.7143 13.7677C22.0414 13.4406 22.4333 13.2768 22.9425 13.278H22.9443H50.4443C50.9564 13.278 51.3497 13.443 51.6769 13.7702C52.004 14.0973 52.1678 14.4892 52.1666 14.9984V15.0003V20.0003C52.1666 20.5123 52.0016 20.9056 51.6744 21.2328C51.3472 21.5599 50.9554 21.7237 50.4462 21.7225H50.4443H22.9443C22.4323 21.7225 22.039 21.5575 21.7118 21.2303C21.3847 20.9032 21.2209 20.5113 21.2221 20.0021ZM21.2221 32.5021V32.5003V27.5003C21.2221 26.9882 21.3871 26.5949 21.7143 26.2677C22.0414 25.9406 22.4333 25.7768 22.9425 25.778H22.9443H50.4443C50.9564 25.778 51.3497 25.943 51.6769 26.2702C52.004 26.5973 52.1678 26.9892 52.1666 27.4984V27.5003V32.5003C52.1666 33.0123 52.0016 33.4056 51.6744 33.7328C51.3472 34.0599 50.9554 34.2237 50.4462 34.2225H50.4443H22.9443C22.4323 34.2225 22.039 34.0575 21.7118 33.7303C21.3847 33.4032 21.2209 33.0113 21.2221 32.5021ZM8.72212 32.5021V32.5003V27.5003C8.72212 26.9882 8.8871 26.5949 9.21432 26.2677C9.54144 25.9406 9.93328 25.7768 10.4425 25.778H10.4443H15.4443C15.9564 25.778 16.3497 25.943 16.6769 26.2702C17.004 26.5973 17.1678 26.9892 17.1666 27.4984V27.5003V32.5003C17.1666 33.0123 17.0016 33.4056 16.6744 33.7328C16.3472 34.0599 15.9554 34.2237 15.4462 34.2225H15.4443H10.4443C9.93229 34.2225 9.53903 34.0575 9.21182 33.7303C8.88469 33.4032 8.72092 33.0113 8.72212 32.5021ZM21.2221 45.0021V45.0003V40.0003C21.2221 39.4882 21.3871 39.0949 21.7143 38.7677C22.0414 38.4406 22.4333 38.2768 22.9425 38.278H22.9443H50.4443C50.9564 38.278 51.3497 38.443 51.6769 38.7702C52.004 39.0973 52.1678 39.4892 52.1666 39.9984V40.0003V45.0003C52.1666 45.5123 52.0016 45.9056 51.6744 46.2328C51.3472 46.5599 50.9554 46.7237 50.4462 46.7225H50.4443H22.9443C22.4323 46.7225 22.039 46.5575 21.7118 46.2303C21.3847 45.9032 21.2209 45.5113 21.2221 45.0021ZM8.72212 45.0021V45.0003V40.0003C8.72212 39.4882 8.8871 39.0949 9.21432 38.7677C9.54144 38.4406 9.93328 38.2768 10.4425 38.278H10.4443H15.4443C15.9564 38.278 16.3497 38.443 16.6769 38.7702C17.004 39.0973 17.1678 39.4892 17.1666 39.9984V40.0003V45.0003C17.1666 45.5123 17.0016 45.9056 16.6744 46.2328C16.3472 46.5599 15.9554 46.7237 15.4462 46.7225H15.4443H10.4443C9.93229 46.7225 9.53903 46.5575 9.21182 46.2303C8.88469 45.9032 8.72092 45.5113 8.72212 45.0021ZM20.4443 45.0003V40.0003C20.4443 39.2919 20.6843 38.6978 21.1643 38.2178C21.6443 37.7378 22.2377 37.4986 22.9443 37.5003L20.4443 45.0003Z" fill="white" stroke="black" stroke-width="1.55556"/>
</svg>
