<svg width="26" height="26" viewBox="0 0 26 26" fill="none" xmlns="http://www.w3.org/2000/svg">
<path d="M15.8774 1.95655C15.9035 1.85833 15.9488 1.76624 16.0106 1.68554C16.0724 1.60484 16.1495 1.53711 16.2375 1.48623C16.3255 1.43535 16.4227 1.40231 16.5235 1.38901C16.6242 1.3757 16.7266 1.38239 16.8248 1.4087C18.6929 1.89599 20.3973 2.8725 21.7625 4.23765C23.1276 5.60279 24.1041 7.3072 24.5914 9.1753C24.6177 9.27348 24.6244 9.37589 24.6111 9.47666C24.5978 9.57743 24.5648 9.67459 24.5139 9.76259C24.463 9.85058 24.3953 9.92768 24.3146 9.98948C24.2339 10.0513 24.1418 10.0966 24.0436 10.1228C23.9784 10.1401 23.9112 10.1488 23.8438 10.1485C23.6734 10.1486 23.5077 10.0925 23.3725 9.98874C23.2373 9.885 23.1401 9.73953 23.0961 9.57491C22.6778 7.97027 21.8391 6.50621 20.6665 5.33363C19.4939 4.16105 18.0298 3.32236 16.4252 2.90401C16.327 2.87782 16.2349 2.83253 16.1542 2.77073C16.0735 2.70893 16.0058 2.63183 15.9549 2.54384C15.904 2.45584 15.871 2.35868 15.8577 2.25791C15.8444 2.15714 15.8511 2.05473 15.8774 1.95655ZM15.394 7.02901C17.2695 7.52916 18.471 8.73057 18.9711 10.6062C19.0151 10.7708 19.1123 10.9163 19.2475 11.02C19.3827 11.1237 19.5484 11.1799 19.7188 11.1798C19.7862 11.18 19.8534 11.1714 19.9186 11.154C20.0168 11.1278 20.1089 11.0825 20.1896 11.0207C20.2703 10.9589 20.338 10.8818 20.3889 10.7938C20.4398 10.7058 20.4728 10.6087 20.4861 10.5079C20.4994 10.4071 20.4927 10.3047 20.4664 10.2065C19.8219 7.79471 18.2054 6.17823 15.7936 5.53369C15.6954 5.50746 15.593 5.50081 15.4922 5.51415C15.3915 5.52748 15.2944 5.56052 15.2064 5.6114C15.0287 5.71414 14.8991 5.88326 14.8461 6.08155C14.7931 6.27984 14.8211 6.49106 14.9238 6.66874C15.0265 6.84642 15.1957 6.97602 15.394 7.02901ZM25.6343 19.5329C25.4134 21.218 24.5865 22.765 23.308 23.8848C22.0295 25.0046 20.387 25.6204 18.6875 25.6173C8.59415 25.6173 0.382825 17.406 0.382825 7.3126C0.379569 5.61367 0.994897 3.97166 2.11387 2.69327C3.23284 1.41488 4.77893 0.587563 6.46333 0.365844C6.85108 0.318723 7.24365 0.398675 7.58208 0.593692C7.92052 0.788709 8.18654 1.08826 8.34021 1.44737L11.0601 7.51885C11.1802 7.79371 11.2299 8.09418 11.2047 8.39307C11.1795 8.69196 11.0802 8.97986 10.9158 9.23073C10.8992 9.25626 10.8811 9.2808 10.8616 9.3042L8.14556 12.5346C8.12907 12.5681 8.12049 12.6049 8.12049 12.6422C8.12049 12.6796 8.12907 12.7164 8.14556 12.7499C9.13298 14.7711 11.2522 16.8749 13.3018 17.861C13.336 17.8766 13.3734 17.884 13.411 17.8827C13.4486 17.8813 13.4853 17.8713 13.5184 17.8533L16.7011 15.1462C16.7238 15.1265 16.7479 15.1084 16.7733 15.0921C17.023 14.9256 17.3104 14.824 17.6093 14.7965C17.9082 14.7691 18.2092 14.8166 18.4851 14.9348L24.5747 17.6638C24.929 17.8208 25.2233 18.0877 25.4142 18.4251C25.605 18.7624 25.6822 19.1522 25.6343 19.5368V19.5329ZM24.1016 19.3421C24.1059 19.2882 24.0932 19.2343 24.0652 19.1881C24.0372 19.1418 23.9953 19.1055 23.9456 19.0843L17.8548 16.3554C17.8215 16.3425 17.7858 16.337 17.7502 16.3393C17.7146 16.3415 17.6799 16.3514 17.6485 16.3683L14.4671 19.0753C14.4439 19.0946 14.4194 19.1127 14.3949 19.1294C14.1354 19.3025 13.8355 19.4053 13.5244 19.4279C13.2133 19.4505 12.9017 19.3921 12.6199 19.2583C10.2532 18.1149 7.89419 15.7779 6.75079 13.4331C6.61631 13.1529 6.55645 12.8428 6.577 12.5327C6.59755 12.2226 6.69782 11.9231 6.8681 11.6632C6.8847 11.6373 6.90323 11.6128 6.92353 11.5897L9.63829 8.35932C9.65381 8.32556 9.66184 8.28884 9.66184 8.25168C9.66184 8.21453 9.65381 8.17781 9.63829 8.14405L6.92353 2.06741C6.90561 2.01864 6.87338 1.97642 6.83105 1.94628C6.78873 1.91615 6.73829 1.89951 6.68634 1.89854H6.65669C5.34564 2.07294 4.14289 2.71857 3.27303 3.71486C2.40316 4.71116 1.92567 5.99001 1.9297 7.3126C1.9297 16.5526 9.44751 24.0704 18.6875 24.0704C20.0103 24.0744 21.2893 23.5967 22.2856 22.7266C23.282 21.8565 23.9275 20.6534 24.1016 19.3421Z" fill="white"/>
</svg>
